{"title":"My Brother Has A Big Dick 2 XXX Digital Sin **[NEW]** 25Aug.2014","uid":10874876,"size":1915681840,"categoryP":"porn","categoryS":"movies","magnet":"?xt=urn:btih:5af9f583281d743eddfd58ed402ee88525aa7e88&amp;dn=My+Brother+Has+A+Big+Dick+2+XXX+Digital+Sin+%2A%2A%5BNEW%5D%2A%2A+25Aug.2014&amp;tr=udp%3A%2F%2Ftracker.openbittorrent.com%3A80&amp;tr=udp%3A%2F%2Fopen.demonii.com%3A1337&amp;tr=udp%3A%2F%2Ftracker.coppersurfer.tk%3A6969&amp;tr=udp%3A%2F%2Fexodus.desync.com%3A6969","seeders":0,"leechers":1,"uploader":"iH2OSO4","files":-1,"time":1408986701,"description":"My Brother Has A Big Dick 2 XXX Digital Sin **[NEW]** 25Aug.2014\n\nThese girls love big cock, and luckily for them, it's always within arm's reach! Aidra Fox, Brianna Brooks, Bailey Bae, and Ava Dalush are horny as fuck and ready to give their stepbrothers the cock ride of their lives. Brace yourselves for some naughty encounters, because these siblings are about to bang!\n\nSOURCE :   &lt;a href=&quot; http://nuscotower.com/i/bro_d6fdj.html&quot; rel=&quot;nofollow&quot; target=&quot;_NEW&quot;&gt; http://nuscotower.com/i/bro_d6fdj.html&lt;/a&gt;\n\nGeneral\nMy.Brother.Has.A.Big.Dick.2.XXX.2014.DVDRiP-ViK.mp4\nFormat                           : MPEG-4\nFormat profile                   : Base Media\nCodec ID                         : isom\nFile size                        : 1.78 GiB\nDuration                         : 2h 4mn\nOverall bit rate                 : 2 044 Kbps\nEncoded date                     : UTC 2014-08-25 14:01:34\nTagged date                      : UTC 2014-08-25 14:01:34\n\nVideo\nID                               : 1\nFormat                           : MPEG-4 Visual\nFormat profile                   : Simple@L1\nFormat settings, BVOP            : No\nFormat settings, QPel            : No\nFormat settings, GMC             : No warppoints\nFormat settings, Matrix          : Default (H.263)\nCodec ID                         : 20\nDuration                         : 2h 4mn\nBit rate mode                    : Variable\nBit rate                         : 1 916 Kbps\nMaximum bit rate                 : 5 795 Kbps\nWidth                            : 712 pixels\nHeight                           : 400 pixels\nDisplay aspect ratio             : 16:9\nFrame rate mode                  : Constant\nFrame rate                       : 23.976 fps\nColor space                      : YUV\nChroma subsampling               : 4:2:0\nBit depth                        : 8 bits\nScan type                        : Progressive\nCompression mode                 : Lossy\nBits/(Pixel*Frame)               : 0.281\nStream size                      : 1.67 GiB (94%)\nWriting library                  : Lavc53.8.0\nEncoded date                     : UTC 2014-08-25 14:01:34\nTagged date                      : UTC 2014-08-25 14:03:09\n\nAudio\nID                               : 2\nFormat                           : AAC\nFormat/Info                      : Advanced Audio Codec\nFormat profile                   : LC\nCodec ID                         : 40\nDuration                         : 2h 4mn\nBit rate mode                    : Variable\nBit rate                         : 126 Kbps\nMaximum bit rate                 : 261 Kbps\nChannel(s)                       : 2 channels\nChannel positions                : Front: L R\nSampling rate                    : 44.1 KHz\nCompression mode                 : Lossy\nStream size                      : 112 MiB (6%)\nEncoded date                     : UTC 2014-08-25 14:02:44\nTagged date                      : UTC 2014-08-25 14:03:09\n","torrent":{"xt":"urn:btih:5af9f583281d743eddfd58ed402ee88525aa7e88","amp;dn":"My+Brother+Has+A+Big+Dick+2+XXX+Digital+Sin+%2A%2A%5BNEW%5D%2A%2A+25Aug.2014","amp;tr":["udp%3A%2F%2Ftracker.openbittorrent.com%3A80","udp%3A%2F%2Fopen.demonii.com%3A1337","udp%3A%2F%2Ftracker.coppersurfer.tk%3A6969","udp%3A%2F%2Fexodus.desync.com%3A6969"],"infoHash":"5af9f583281d743eddfd58ed402ee88525aa7e88","infoHashBuffer":{"type":"Buffer","data":[90,249,245,131,40,29,116,62,221,253,88,237,64,46,232,133,37,170,126,136]},"announce":[],"urlList":[]}}